<?xml version="1.0" encoding="utf-8"?>
<!-- Generator: Adobe Illustrator 22.0.0, SVG Export Plug-In . SVG Version: 6.00 Build 0)  -->
<svg version="1.1" id="decoration" xmlns="http://www.w3.org/2000/svg" xmlns:xlink="http://www.w3.org/1999/xlink" x="0px" y="0px"
	 viewBox="0 0 512 512" style="enable-background:new 0 0 512 512;" xml:space="preserve">
<style type="text/css">
	.st0{fill:#E8EAF6;}
	.st1{fill:url(#SVGID_1_);stroke:#FFFFFF;stroke-width:3;stroke-miterlimit:10;}
	.st2{fill:url(#SVGID_2_);}
</style>
<path class="st0" d="M443.2,113.7L287.8,24c-19.5-11.3-43.6-11.3-63.1,0L69.3,113.7c-19.5,11.3-31.5,32.1-31.5,54.6v179.5
	c0,22.5,12,43.4,31.5,54.6l155.4,89.7c19.5,11.3,43.6,11.3,63.1,0l155.4-89.7c19.5-11.3,31.5-32.1,31.5-54.6V168.3
	C474.8,145.8,462.8,125,443.2,113.7z"/>
<linearGradient id="SVGID_1_" gradientUnits="userSpaceOnUse" x1="37.4812" y1="256" x2="474.5188" y2="256">
	<stop  offset="0" style="stop-color:#283593"/>
	<stop  offset="0.2887" style="stop-color:#293795"/>
	<stop  offset="0.3927" style="stop-color:#2E3C9C"/>
	<stop  offset="0.4666" style="stop-color:#3646A7"/>
	<stop  offset="0.5169" style="stop-color:#3F51B5"/>
	<stop  offset="0.5851" style="stop-color:#3F51B5"/>
	<stop  offset="1" style="stop-color:#3F51B5"/>
</linearGradient>
<path class="st1" d="M443,111.6L287.5,21.9c-19.5-11.3-43.6-11.3-63.1,0L69,111.6c-19.5,11.3-31.5,32.1-31.5,54.6v179.5
	c0,22.5,12,43.4,31.5,54.6l155.4,89.7c19.5,11.3,43.6,11.3,63.1,0L443,400.4c19.5-11.3,31.5-32.1,31.5-54.6V166.3
	C474.5,143.7,462.5,122.9,443,111.6z M422.2,287.5l-55.8,96.6c-11.3,19.5-32.1,31.5-54.6,31.5H200.2c-22.5,0-43.4-12-54.6-31.5
	l-55.8-96.6c-11.3-19.5-11.3-43.6,0-63.1l55.8-96.6c11.3-19.5,32.1-31.5,54.6-31.5h111.5c22.5,0,43.4,12,54.6,31.5l55.8,96.6
	C433.4,244,433.4,268,422.2,287.5z"/>
<g>
	<g>
		<linearGradient id="SVGID_2_" gradientUnits="userSpaceOnUse" x1="133.1024" y1="258.0834" x2="379.4051" y2="258.0834">
			<stop  offset="0" style="stop-color:#283593"/>
			<stop  offset="0.2887" style="stop-color:#293795"/>
			<stop  offset="0.3927" style="stop-color:#2E3C9C"/>
			<stop  offset="0.4666" style="stop-color:#3646A7"/>
			<stop  offset="0.5169" style="stop-color:#3F51B5"/>
			<stop  offset="0.5851" style="stop-color:#3F51B5"/>
			<stop  offset="1" style="stop-color:#3F51B5"/>
		</linearGradient>
		<path class="st2" d="M170.4,251.7l73.5,45.4c4.2,2.6,8.9,3.9,13.6,3.9c4.7,0,9.5-1.3,13.7-3.9l96.2-59.8
			c7.7-4.8,12.3-13.1,12.2-22.2c-0.1-9.1-4.8-17.3-12.7-22l-96.2-57c-8.1-4.8-18.2-4.8-26.3,0l-96.7,56.9
			c-8.6,5.1-14.5,14.5-14.5,23.4h0.3v75.2c0,12,6.1,22.9,16.3,29.2l94.5,58.4c5.1,3.2,10.9,4.8,16.6,4.8c5.8,0,11.6-1.6,16.7-4.8
			l96.5-60c3.5-2.2,4.5-6.7,2.4-10.2l-8.2-13.1c-2.2-3.5-6.7-4.5-10.2-2.4l-82.4,50.6c-9.5,5.9-21.6,5.8-31.1,0l-74.3-44.5
			c-4.6-2.7-7.3-7.7-7.2-13l0.6-30.8C163.6,252,167.4,249.9,170.4,251.7z"/>
	</g>
	<path class="st0" d="M322.5,220.6l-60.7,35.8c-3.2,1.9-7.3,1.9-10.5-0.1l-59.1-35.8c-6.6-4-6.6-13.5,0-17.5l59.1-35.8
		c3.2-2,7.3-2,10.5-0.1l60.7,35.8C329.2,207,329.2,216.7,322.5,220.6z"/>
</g>
</svg>
