<?xml version="1.0" encoding="UTF-8" standalone="no"?>
<!DOCTYPE svg PUBLIC "-//W3C//DTD SVG 1.1//EN" "http://www.w3.org/Graphics/SVG/1.1/DTD/svg11.dtd">
<svg version="1.1" xmlns="http://www.w3.org/2000/svg" xmlns:xlink="http://www.w3.org/1999/xlink" preserveAspectRatio="xMidYMid meet" viewBox="0 0 500 500" width="500" height="500"><defs><path d="M51.93 172.44C51.93 213.53 51.93 288.58 51.93 329.66C51.93 359.63 67.45 387.47 92.96 403.21C125.85 423.5 183.49 459.08 216.38 479.39C241.52 494.91 273.28 494.91 298.43 479.39C331.33 459.08 388.96 423.5 421.85 403.21C447.35 387.47 462.88 359.63 462.88 329.66C462.88 288.58 462.88 213.53 462.88 172.44C462.88 142.47 447.35 114.64 421.85 98.9C388.96 78.6 331.33 43.03 298.43 22.72C273.28 7.2 241.52 7.2 216.38 22.72C183.49 43.03 125.85 78.6 92.96 98.9C67.45 114.64 51.93 142.47 51.93 172.44Z" id="a26R37omgH"></path></defs><g><g><g><g><use xlink:href="#a26R37omgH" opacity="1" fill-opacity="0" stroke="#ffffff" stroke-width="10" stroke-opacity="0.04"></use></g></g></g></g></svg>